<svg width="50" height="50" viewBox="0 0 50 50" fill="none" xmlns="http://www.w3.org/2000/svg">
<path d="M23.3486 24.1063C32.4993 14.9007 41.5943 9.07326 43.6627 11.0904C45.7312 13.1076 39.9898 22.2055 30.8391 31.4111C21.6883 40.6168 12.5934 46.4442 10.5249 44.427C8.45648 42.4099 14.1978 33.312 23.3486 24.1063ZM30.6144 31.192C39.2161 22.5387 44.6129 13.9867 42.6686 12.0905C40.7242 10.1944 32.175 15.6722 23.5733 24.3255C14.9716 32.9788 9.57472 41.5308 11.5191 43.4269C13.4634 45.3231 22.0127 39.8453 30.6144 31.192Z" fill="#404040"/>
<path d="M32.9486 18.0764C41.7141 28.0598 45.1868 39.1258 40.705 42.7932C36.2233 46.4606 25.4843 41.3405 16.7188 31.3572C7.9533 21.3738 4.48061 10.3077 8.96234 6.64037C13.4441 2.97299 24.1831 8.09309 32.9486 18.0764ZM17.2057 30.9587C25.4453 40.3431 35.5399 45.156 39.7528 41.7086C43.9656 38.2613 40.7012 27.8592 32.4617 18.4748C24.2221 9.09051 14.1274 4.27762 9.91462 7.72495C5.7018 11.1723 8.96613 21.5744 17.2057 30.9587Z" fill="#404040"/>
<path d="M27.7757 9.75089C39.834 12.1693 48.3738 20.9622 46.8499 29.3903C45.326 37.8185 34.3155 42.6902 22.2572 40.2718C10.1989 37.8533 1.65908 29.0605 3.18296 20.6324C4.70685 12.2042 15.7174 7.33244 27.7757 9.75089ZM22.4228 39.3562C33.7575 41.6295 44.1075 37.05 45.5399 29.1276C46.9724 21.2052 38.9449 12.9399 27.6101 10.6665C16.2753 8.39318 5.92542 12.9727 4.49297 20.8951C3.06052 28.8175 11.088 37.0828 22.4228 39.3562Z" fill="#404040"/>
<ellipse cx="25.6356" cy="25" rx="7.41525" ry="7.2314" fill="url(#paint0_linear_426_112)"/>
<ellipse cx="25.8333" cy="35.8333" rx="0.833333" ry="0.833334" fill="url(#paint1_linear_426_112)"/>
<circle cx="10.4167" cy="21.6667" r="1.25" fill="url(#paint2_linear_426_112)"/>
<ellipse cx="32.9167" cy="11.6667" rx="1.66667" ry="1.66667" fill="url(#paint3_linear_426_112)"/>
<defs>
<linearGradient id="paint0_linear_426_112" x1="18.2203" y1="17.7686" x2="32.6524" y2="33.6775" gradientUnits="userSpaceOnUse">
<stop stop-color="#013499"/>
<stop offset="1" stop-color="#012366"/>
</linearGradient>
<linearGradient id="paint1_linear_426_112" x1="25" y1="35" x2="26.6667" y2="36.7917" gradientUnits="userSpaceOnUse">
<stop stop-color="#013499"/>
<stop offset="1" stop-color="#012366"/>
</linearGradient>
<linearGradient id="paint2_linear_426_112" x1="9.16667" y1="20.4167" x2="11.6667" y2="23.1042" gradientUnits="userSpaceOnUse">
<stop stop-color="#013499"/>
<stop offset="1" stop-color="#012366"/>
</linearGradient>
<linearGradient id="paint3_linear_426_112" x1="31.25" y1="10" x2="34.5833" y2="13.5833" gradientUnits="userSpaceOnUse">
<stop stop-color="#013499"/>
<stop offset="1" stop-color="#012366"/>
</linearGradient>
</defs>
</svg>
